<svg xmlns="http://www.w3.org/2000/svg" 
       xmlns:xlink="http://www.w3.org/1999/xlink"
       version="1.1" width="360" height="140"><defs id="SvgjsDefs1151"></defs><g id="SvgjsG1152" featurekey="root" fill="#cdcdcd"></g><g id="SvgjsG1153" featurekey="container1" fill="#323232" fill-opacity="0" transform="matrix(1,0,0,1,0,5)"><rect xmlns="http://www.w3.org/2000/svg" width="360" rx="10" ry="10" height="120"></rect></g><g id="SvgjsG1154" featurekey="text1" fill="#cdcdcd" transform="matrix(4.278539020528358,0,0,4.278539020528358,20,-7.620132647538199)"><path d="M0 9.961375 l2.7832 0 l0 5.752 l-0.54688 0 l0 5.9375 l4.1504 0 l0 1.25 l-0.82031 0 l0 0.2832 l0.82031 0 l0 0.80078 l-2.6855 0 l0 -0.21484 l-3.6816 0 q-0.01953125 -0.234375 -0.01953125 -0.3515625 l0 -3.1348 l0.70313 0 l0 -0.41992 l-0.70313 0 l0 -9.9023 z M6.3867 22.900375 l1.0156 0 l0 0.2832 l-1.0156 0 l0 -0.2832 z M11.84570625 10.019375 l2.3535 0 q0.048828125 0.205078125 2.28515625 7.626953125 l0.42969 0 l0 4.5996 l-0.9668 0 l0 0.35156 l0.9668 0 l0 0.98633 l-2.5977 0 l0 -2.8223 l-3.1738 0 l0 1.2012 l-1.2988 0 l0 2.0215 l-2.3535 0 l0 -0.13672 l0.18555 0 l0 -1.8848 l0.9668 0 l0 -3.916 l0.80078 0 z M12.94920625 13.955375 l0 0.019531 q-0.302734375 1.669921875 -1.171875 5.25390625 l2.1875 0 l0 -1.582 l-0.18555 0 q-0.78125 -3.388671875 -0.78125 -3.69140625 l-0.048828 0 z M6.80663625 17.626975 l1.8359 0 l0 0.41992 l-1.8359 0 l0 -0.41992 z M14.31640625 23.749995 l3.1348 0 l0 0.23438 l-3.1348 0 l0 -0.23438 z M17.05078125 10.019375 l7.3535 0 l0 1.7676 q0 0.05859375 -1.123046875 2.44140625 l2.4902 0 l0 0.61523 l-2.7539 0 q-0.029296875 0 -0.751953125 1.50390625 q-0.01953125 0.107421875 -0.72265625 1.572265625 l0.40039 0 q-0.76171875 1.650390625 -0.849609375 1.767578125 l-1.2012 0 l0 0.53711 l0.9668 0 l-0.6543 1.4063 l2.5586 0 l0 0.73242 l2.3047 0 l0 1.5723 q0 0.048828125 -0.048828125 0.048828125 l-3.877 0 l0 -0.23438 l-4.0918 0 l0 -1.3379 l0.58594 0 l0 -1.5039 q0.166015625 -0.4296875 1.416015625 -2.98828125 l-0.40039 0 l0 -0.019531 l2.6563 -5.5469 l-4.2578 0 l0 -2.334 z M21.96288125 14.228475 l0 0.61523 l0.98633 0 q0.048828125 0 0.302734375 -0.615234375 l-1.2891 0 z M26.162105625 10.019375 l2.7441 0 q0 2.021484375 0.703125 3.427734375 q0.751953125 1.8359375 1.03515625 2.91015625 l0 0.029297 l0.019531 0 q0.3515625 -1.298828125 1.455078125 -3.994140625 q0.283203125 -1.279296875 0.283203125 -2.373046875 l2.5781 0 q-0.234375 2.109375 -0.5859375 3.10546875 l-1.5527 3.5156 l-0.9375 0 l0 2.4121 l-1.4258 0 l0 0.46875 l1.4258 0 l0 4.4629 l-2.6758 0 q-0.0390625 0 -0.0390625 -0.048828125 l0 -2.1777 l-0.42969 0 l0 -3.877 l0.80078 0 l0 -0.35156 l-0.86914 0 q-0.107421875 -0.126953125 -1.62109375 -3.6328125 q-0.634765625 -1.40625 -0.634765625 -1.689453125 l1.1523 0 l0 -0.49805 l-1.2402 0 q-0.185546875 -1.54296875 -0.185546875 -1.689453125 z M24.492185625 11.709375 l1.8555 0 l0.068359 0.49805 l-1.9238 0 l0 -0.49805 z M31.904315625 19.052775 l1.1523 0 l0 0.46875 l-1.1523 0 l0 -0.46875 z M35.98633 10.117375 l3.9355 0 q2.63671875 0 3.349609375 1.328125 q0.400390625 0.693359375 0.400390625 1.89453125 l0 0.9668 q0 1.3671875 -1.181640625 2.20703125 q0.400390625 0.068359375 1.015625 0.615234375 l0.3125 0 q0.576171875 0.60546875 0.751953125 1.162109375 q0.048828125 0.1953125 0.048828125 0.21484375 l0.38086 0 l0 0.23438 l-1.2598 0 l0 -0.23438 l-2.5781 0 l0 -0.73242 l-2.5391 0 l0 4.0332 l1.5918 0 l0 -0.2832 l0.94727 0 l0 -2.7832 l2.5781 0 l0 2.4512 l0.2832 0 l0 1.5332 l-0.84961 0 l0 0.36133 l0.84961 0 l0 0.63477 l-3.2715 0 l0 0.26367 l-3.5742 0 l0 -0.26367 l-0.78125 0 l0 -2.1289 l1.0645 0 l0 -0.56641 l-1.0645 0 q-0.029296875 -1.630859375 -0.029296875 -2.421875 l0 -1.0254 l-0.89844 0 l0 -0.25391 l0.89844 0 l0 -0.54688 l-0.41992 0 l0 -6.6113 q0 -0.048828125 0.0390625 -0.048828125 z M38.67185 12.461375 l0 3.4375 l0.58594 0 q1.044921875 0 1.376953125 -0.3515625 q0.33203125 -0.283203125 0.33203125 -1.5234375 l0 -0.048828 q0 -1.0546875 -0.33203125 -1.279296875 q-0.21484375 -0.234375 -1.513671875 -0.234375 l-0.44922 0 z M36.39648 17.324175 l0 0.25391 l1.2793 0 l0 -0.25391 l-1.2793 0 z M39.85355 18.505875 l1.3086 0 l0 0.23438 l-1.3086 0 l0 -0.23438 z M50.556646875 10.009375 q3.0078125 0 3.955078125 2.099609375 q0.537109375 1.025390625 0.537109375 3.955078125 l0 0.068359 l-1.0352 0 l0 0.46875 l1.0352 0 l0 5.0488 l-0.68359 0 l0 1.8164 l-1.3574 0 l0 0.51758 l-4.7461 0 l0 -0.51758 l-0.57617 0 l0 -1.8164 l-1.2207 0 l0 -1.4258 l0.72266 0 l0 -0.75195 l-0.72266 0 l0 0.75195 l-1.7285 0 l0 -0.75195 l1.3086 0 q-0.01953125 -1.708984375 -0.01953125 -2.6171875 l0 -1.1914 q0 -3.3203125 1.123046875 -4.443359375 q1.025390625 -1.2109375 3.408203125 -1.2109375 z M48.847646875 14.824175 l0.029297 0 l-0.029297 0.039063 l0 1.2695 l-1.0449 0 l0 0.46875 l1.0449 0 q-0.01953125 3.017578125 -0.01953125 4.55078125 l0 0.49805 l2.334 0 l0 -0.77148 l1.0742 0 l0 -0.029297 q0 -1.42578125 -0.01953125 -3.974609375 q0 -0.107421875 0.01953125 -0.537109375 q0 -2.75390625 -0.322265625 -3.388671875 q-0.33203125 -0.60546875 -1.220703125 -0.60546875 l-0.3418 0 q-1.064453125 0 -1.318359375 0.9375 q-0.1171875 0.458984375 -0.185546875 1.54296875 z M55.048846875 16.132775 l1.6797 0 l0 0.46875 l-1.6797 0 l0 -0.46875 z M61.46485 10.009375 q3.0078125 0 3.955078125 2.099609375 q0.537109375 1.025390625 0.537109375 3.955078125 l0 0.068359 l-1.0352 0 l0 0.46875 l1.0352 0 l0 5.0488 l-0.68359 0 l0 1.8164 l-1.3574 0 l0 0.51758 l-4.7461 0 l0 -0.51758 l-0.57617 0 l0 -1.8164 l-1.2207 0 l0 -1.4258 l0.72266 0 l0 -0.75195 l-0.72266 0 l0 0.75195 l-1.7285 0 l0 -0.75195 l1.3086 0 q-0.01953125 -1.708984375 -0.01953125 -2.6171875 l0 -1.1914 q0 -3.3203125 1.123046875 -4.443359375 q1.025390625 -1.2109375 3.408203125 -1.2109375 z M59.75585 14.824175 l0.029297 0 l-0.029297 0.039063 l0 1.2695 l-1.0449 0 l0 0.46875 l1.0449 0 q-0.01953125 3.017578125 -0.01953125 4.55078125 l0 0.49805 l2.334 0 l0 -0.77148 l1.0742 0 l0 -0.029297 q0 -1.42578125 -0.01953125 -3.974609375 q0 -0.107421875 0.01953125 -0.537109375 q0 -2.75390625 -0.322265625 -3.388671875 q-0.33203125 -0.60546875 -1.220703125 -0.60546875 l-0.3418 0 q-1.064453125 0 -1.318359375 0.9375 q-0.1171875 0.458984375 -0.185546875 1.54296875 z M65.95705 16.132775 l1.6797 0 l0 0.46875 l-1.6797 0 l0 -0.46875 z M66.591793125 9.990375 l8.2031 0 l0 2.334 l-2.7148 0 l0 9.6777 l1.2305 0 l0 0.2832 l-1.2305 0 l0 1.0645 l-0.73242 0 l0 0.37109 l0.51758 0 l0 0.26367 l-2.4902 0 q-0.048828125 0 -0.048828125 -0.048828125 l0 -11.611 l-2.7344 0 l0 -2.334 z M71.113253125 22.001975 l0 0.2832 l0.94727 0 l0 -0.2832 l-0.94727 0 z"></path></g></svg>